<svg width="375" height="423" viewBox="0 0 375 423" fill="none" xmlns="http://www.w3.org/2000/svg">
<path d="M336.215 124.362C335.35 124.457 335.701 125.663 336.427 125.741C347.562 126.995 360.978 126.676 365.787 139.772C356.965 142.771 339.481 135.419 332.893 129.356C333.447 128.282 333.744 127.093 333.761 125.885C333.778 124.676 333.515 123.48 332.991 122.391C332.468 121.301 331.698 120.348 330.744 119.607C329.789 118.865 328.676 118.355 327.491 118.117C329.528 111.799 330.016 105.084 328.915 98.5385C327.814 91.9926 325.156 85.8072 321.165 80.5035C317.096 75.3514 316.605 76.1043 314.657 81.138C309.915 93.6757 311.658 110.42 319.352 117.304C319.911 117.806 320.983 117.304 320.621 116.552C315.947 107.102 311.912 95.5898 317.851 79.9176C328.337 91.4634 327.334 110.989 324.896 118.045C320.678 118.603 316.552 121.384 316.757 126.023C306.499 128.827 286.301 142.048 287.475 154.666C287.932 159.545 312.644 152.306 318.718 135.29C319.219 133.909 316.905 133.239 316.529 134.656C313.703 145.29 299.431 151.751 289.573 153.611C292.469 141.312 305.723 131.68 317.258 128.364C320.757 134.199 327.004 137.276 331.996 130.769C338.163 138.746 358.668 145.785 367.991 141.403C369.884 140.555 364.357 121.287 336.215 124.362Z" fill="#D7E02D"/>
<path d="M208.456 207.803C207.382 208.149 172.905 226.575 173.51 227.351C174.115 228.128 221.836 236.469 223.284 236.093C224.733 235.716 260.72 217.307 260.72 216.224C260.72 215.142 209.537 207.454 208.456 207.803ZM241.281 216.076C237.8 218.008 234.304 219.908 230.795 221.776C233.771 222.358 236.746 222.916 239.72 223.589C240.86 223.841 240.551 225.704 239.367 225.448C235.65 224.687 231.927 223.927 228.198 223.168C222.383 226.199 216.514 229.378 210.461 231.886C209.789 232.159 209.243 231.089 209.88 230.746C215.091 228.033 220.309 225.357 225.531 222.654L210.064 220.044C209.254 220.182 197.752 227.157 195.144 228.227C195.009 228.297 194.852 228.313 194.706 228.273C194.559 228.232 194.433 228.137 194.353 228.008C194.272 227.878 194.244 227.723 194.273 227.574C194.302 227.424 194.387 227.291 194.51 227.201C198.581 224.376 202.847 221.843 207.276 219.621C204.7 219.245 200.493 218.881 198.26 218.278C197.484 218.067 197.45 216.819 198.34 216.808C200.426 216.808 209.328 218.325 209.806 218.242C213.81 216.055 217.837 213.921 221.886 211.838C222.868 211.324 223.564 212.895 222.582 213.399C219.232 215.125 215.9 216.887 212.587 218.686C217.783 219.484 222.925 220.338 228.098 221.296C232.191 219.13 236.26 216.954 240.306 214.708C241.264 214.074 242.243 215.495 241.275 216.03L241.281 216.076Z" fill="#D7E02D"/>
<path d="M46.4794 156.034C48.162 156.237 49.8678 155.96 51.3995 155.235C52.9312 154.509 54.2263 153.365 55.1349 151.934C56.0435 150.503 56.5286 148.845 56.534 147.15C56.5395 145.455 56.0651 143.793 55.1657 142.356C52.4987 137.797 46.3208 137.215 41.488 138.687C42.9812 132.224 37.8058 126.934 31.0463 125.635C24.8472 124.438 16.6072 125.726 13.1174 131.608C11.6707 134.059 10.7253 138.105 12.5379 140.658C1.11689 139.061 -3.3246 151.121 6.31345 154.78C11.694 156.808 39.1404 155.664 46.4794 156.034ZM13.1534 153.761C-3.10041 153.236 4.29574 140.971 11.3746 142.763C13.9126 143.412 14.7946 141.705 14.3356 139.821C13.8436 138.447 13.7333 136.966 14.0164 135.536C14.2994 134.105 14.9653 132.777 15.943 131.695C20.08 126.851 30.5535 126.452 35.6379 130.03C37.0367 130.932 38.1184 132.249 38.7316 133.796C39.3449 135.344 39.4589 137.044 39.0579 138.659C38.9372 138.88 38.8849 139.132 38.9078 139.383C38.9307 139.634 39.0277 139.872 39.1865 140.068C39.3452 140.263 39.5585 140.407 39.7993 140.481C40.04 140.555 40.2973 140.555 40.5384 140.483C43.417 139.789 46.4241 139.832 49.2818 140.607C56.1196 142.807 56.6208 153.682 45.8618 153.784C27.8632 153.972 13.1534 154.014 13.1534 153.761Z" fill="#D7E02D"/>
<path d="M83.3062 118.785C94.1223 116.881 99.7778 105.849 95.8439 97.5057C94.2252 94.3439 91.6603 91.7661 88.5066 90.1316C85.353 88.4972 81.7679 87.8876 78.2513 88.3879C74.1326 88.9046 70.3592 90.9525 67.6815 94.1244C65.0038 97.2962 63.6179 101.36 63.7995 105.507C64.3071 115.663 74.2688 120.379 83.3062 118.785ZM78.7483 90.9619C81.379 90.5315 84.0779 90.86 86.5285 91.9089C88.9791 92.9578 91.0799 94.6835 92.5847 96.8839C97.9758 104.656 91.9121 114.95 82.953 116.259C75.7725 117.298 66.9974 113.721 66.3354 105.473C65.6734 97.4613 71.7836 91.9369 78.7018 90.9513L78.7483 90.9619Z" fill="#D7E02D"/>
<path d="M158.522 121.019C184.19 120.596 213.495 119.595 240.041 117.601C268.967 115.486 246.538 84.0442 225.838 96.8738C226.978 80.6771 202.119 74.5119 194.016 85.5437C190.048 73.7145 174.934 73.19 165.521 79.9263C161.812 82.4852 159.216 86.3594 158.259 90.7626C157.302 95.1657 158.056 99.768 160.368 103.635C147.934 100.537 142.97 121.272 158.522 121.019ZM158.875 105.539C162.786 105.717 164.484 105.835 162.181 102.428C159.605 98.6207 157.154 88.0457 168.154 80.9182C176.656 75.4023 189.319 76.3604 192.385 88.7035C192.694 89.9471 194.06 89.3761 194.517 88.2699C198.631 78.2871 225.724 80.0214 223.423 98.1639C223.07 100.956 224.254 100.512 225.041 99.987C244.52 86.891 264.682 113.768 238.81 115.477C212.342 117.169 185.81 118.191 159.377 118.897C146.441 119.263 150.098 105.143 158.875 105.539Z" fill="#D7E02D"/>
<path d="M321.593 136.841C319.968 167.618 320.281 203.074 320.453 231.593C320.453 233.224 322.991 233.463 323.006 231.804C323.359 202.649 323.484 167.633 323.217 136.746C323.234 135.783 321.639 135.927 321.593 136.841Z" fill="#D7E02D"/>
<path d="M326.711 137.433C328.432 170.387 330.425 205.113 332.032 235.992C332.123 237.684 334.735 237.35 334.642 235.662C333.424 212.695 331.097 164.437 328.853 138.848C328.511 134.857 326.681 136.896 326.711 137.433Z" fill="#D7E02D"/>
<path d="M297.005 306.292C294.188 307.349 289.028 307.17 286.179 308.037C285.938 308.099 285.728 308.245 285.586 308.449C285.445 308.652 285.381 308.9 285.406 309.147C285.432 309.394 285.545 309.624 285.726 309.794C285.906 309.964 286.142 310.064 286.39 310.076C290.233 309.917 294.051 309.38 297.788 308.47C299.07 307.967 298.249 305.829 297.005 306.292Z" fill="#FEFFFC"/>
<path d="M311.208 207.905C279.648 203.347 240.222 197.647 208.797 193.51C207.761 193.373 141.733 228.571 136.238 231.705C133.065 233.515 132.818 232.593 132.945 236.538C133.503 255.651 134.778 256.972 135.35 276.199C135.392 276.509 135.549 276.793 135.789 276.993C136.03 277.194 136.337 277.297 136.65 277.283C136.962 277.268 137.259 277.137 137.48 276.916C137.701 276.694 137.831 276.398 137.845 276.085C137.731 258.634 136.375 258.627 135.121 235.523C143.535 238.35 208.787 250.636 220.127 252.836C219.467 254.443 221.062 310.965 221.164 316.497C212.046 315.082 203.224 312.187 194.254 310.798C193.309 310.649 193.114 312.086 193.969 312.392C202.37 315.189 210.969 317.353 219.694 318.866C226.301 320.036 228.458 317.494 264.716 313.579C266.336 313.395 266.175 310.865 264.534 311.041C258.836 311.612 230.021 315.059 223.672 317.071C223.833 301.606 222.75 272.837 222.145 253.346C251.778 238.801 281.631 224.702 311.821 211.481C312.222 211.329 312.558 211.043 312.77 210.67C312.983 210.298 313.06 209.863 312.987 209.44C312.915 209.018 312.698 208.633 312.373 208.353C312.048 208.073 311.636 207.915 311.208 207.905ZM221.496 251.013C221.348 250.831 145.356 235.169 137.617 233.67C147.669 228.564 208.285 197.368 209.288 195.75C240.528 201.164 276.945 205.54 308.598 210.1C281.631 221.938 247.028 237.779 221.496 251.002V251.013Z" fill="#FEFFFC"/>
<path d="M365.178 252.186C348.366 246.899 331.723 240.789 315.142 235.865C314.994 231.846 315.142 216.056 314.116 213.137C313.807 212.238 312.075 211.917 312.098 213.069C312.623 234.829 313.306 270.858 314.636 285.65C314.704 286.449 316.299 286.301 316.328 285.525C316.832 270.048 315.713 254.136 315.188 238.612C321.846 241.643 354.239 251.15 364.611 254.513C365.851 254.9 366.295 252.531 365.178 252.186Z" fill="#FEFFFC"/>
<path d="M361.94 255.503C361.801 254.604 360.447 254.91 360.483 255.685C361.2 269.25 360.881 282.357 361.473 290.459L330.518 295.567C330.825 293.287 328.762 267.677 328.568 262.626C332.248 262.08 335.92 261.486 339.6 260.951C339.361 264.371 341.025 286.026 341.277 289.332C341.402 290.895 343.557 290.952 343.419 289.332C342.918 280.521 342.087 272.748 341.903 262.924C341.903 261.693 341.903 258.081 340.389 258.294C335.886 258.956 331.393 259.642 326.903 260.314C326.636 260.393 326.402 260.557 326.238 260.781C326.073 261.005 325.987 261.278 325.992 261.556C326.311 265.295 327.781 292.331 328.898 295.806C326.408 296.035 323.955 296.563 321.593 297.38C321.472 297.437 321.373 297.53 321.309 297.647C321.245 297.764 321.219 297.898 321.235 298.03C321.251 298.162 321.308 298.286 321.399 298.383C321.489 298.481 321.608 298.548 321.738 298.575C326.298 299.169 353.381 294.381 359.923 293.219C365.064 292.318 364.129 291.168 363.941 287.873C363.332 277.786 363.442 265.141 361.94 255.503Z" fill="#FEFFFC"/>
<path d="M236.312 285.915C236.415 286.063 243.037 285.229 249.867 284.223C249.568 278.923 249.592 273.417 249.477 268.094C242.709 268.982 236.153 270.031 235.994 270.477C235.82 275.625 235.926 280.779 236.312 285.915Z" fill="#FEFFFC"/>
<path d="M289.222 228.684C289.222 228.684 289.767 244.239 290.531 245.14C291.294 246.041 304.209 243.592 304.881 242.725C305.554 241.858 304.769 226.962 304.164 226.427C303.559 225.892 289.767 227.829 289.222 228.684Z" fill="#FEFFFC"/>
<path d="M252.191 267.759L252.636 283.807C258.904 282.839 264.625 281.826 264.82 281.392C265.078 276.526 264.899 271.647 264.283 266.813C260.232 266.76 256.185 267.076 252.191 267.759Z" fill="#FEFFFC"/>
<path d="M35.1618 214.744C35.1406 213.898 33.7828 213.96 33.7024 214.744C32.5624 228.227 30.2253 242.326 19.9549 252.118C19.7265 235.875 19.8978 219.577 18.8826 203.357C18.8547 203.171 18.7593 203.002 18.6147 202.883C18.4701 202.763 18.2865 202.701 18.0988 202.708C17.9112 202.715 17.7327 202.791 17.5976 202.921C17.4624 203.051 17.38 203.227 17.3661 203.414C16.8755 215.599 17.1843 227.806 17.2858 240.004C12.2838 237.404 6.63041 222.337 7.29029 211.417C7.29029 210.62 5.99168 210.347 5.84363 211.189C3.32466 225.928 13.6691 243.468 17.309 242.603C17.4465 256.154 17.5375 269.766 17.7765 283.304C17.7765 284.706 20.0564 284.945 20.251 283.543C21.2303 276.705 20.0903 262.765 19.9993 255.255C32.9389 247.114 35.3563 222.878 35.1618 214.744Z" fill="#FEFFFC"/>
<path d="M46.5827 236.995C56.2144 234.567 57.5807 216.363 44.9986 215.337C55.2563 204.326 43.7105 185.055 29.4745 194.354C24.187 178.807 -2.44089 184.733 -4.60666 200.054C-4.91703 201.784 -4.82328 203.562 -4.33275 205.25C-3.84222 206.938 -2.96818 208.489 -1.7789 209.783C-8.89165 210.09 -15.685 221.259 -8.09429 228.681C-6.9173 229.66 -5.66723 230.548 -4.35497 231.337C-12.4808 238.175 -6.04697 256.717 8.18275 250.313C9.66325 249.651 8.36464 247.487 6.89472 248.137C-5.22212 253.549 -8.90222 235.986 -1.64142 232.075C0.896576 230.709 -1.30091 229.797 -3.43283 228.85C-11.7173 225.204 -9.98933 215.437 -1.44896 211.983C-0.901175 211.771 1.56069 211.207 0.38686 209.703C-1.48672 207.255 -2.37921 204.195 -2.11594 201.124C-1.85268 198.052 -0.452601 195.189 1.81026 193.096C8.26312 187.076 22.146 184.321 26.5896 194.396C28.1526 197.952 28.3006 197.814 32.0611 195.534C38.9793 191.387 50.2078 200.232 44.474 210.866C43.4165 212.827 41.0541 214.286 42.5367 216.439C44.0193 218.592 46.2401 217.122 49.6029 219.859C53.9112 223.404 52.1557 235.298 43.3108 234.903C41.4306 234.825 42.1708 236.83 43.5731 237.617C50.9756 241.764 45.375 259.911 33.3153 251.554C32.5391 251.021 31.5493 251.956 32.1753 252.627C40.0748 261.979 56.1002 249.738 46.5827 236.995Z" fill="#FEFFFC"/>
<path d="M176.81 200.29C178.354 194.023 183.718 151.552 184.949 150.321C187.559 147.745 198.419 184.286 199.344 187.706C199.798 189.415 202.305 188.63 201.943 186.942C199.069 174.341 194.665 162.139 188.83 150.607C186.209 145.681 182.88 146.924 181.935 152.168C180.243 161.594 175.3 191.183 175.357 200.153C175.373 200.325 175.449 200.487 175.571 200.61C175.693 200.732 175.854 200.808 176.027 200.825C176.199 200.841 176.372 200.797 176.515 200.699C176.658 200.601 176.763 200.457 176.81 200.29Z" fill="#FEFFFC"/>
<path d="M55.6676 214.345C57.5711 205.432 59.7369 183.709 63.3958 176.983C70.3013 183.821 76.9318 232.608 78.4631 243.489C78.4844 243.668 78.5415 243.84 78.6311 243.996C78.7207 244.152 78.8409 244.288 78.9844 244.397C79.128 244.505 79.2919 244.583 79.4664 244.626C79.6409 244.67 79.8224 244.677 79.9999 244.649C80.1775 244.62 80.3474 244.556 80.4996 244.46C80.6517 244.365 80.7829 244.239 80.8853 244.091C80.9877 243.943 81.0592 243.776 81.0954 243.6C81.1317 243.424 81.132 243.243 81.0963 243.066C79.3408 230.757 73.3448 180.868 63.8061 174.075C58.4933 170.291 54.2992 211.21 54.0771 214.194C54.0911 214.385 54.1722 214.565 54.3062 214.702C54.4402 214.839 54.6183 214.924 54.8089 214.942C54.9995 214.96 55.1904 214.91 55.3476 214.8C55.5048 214.691 55.6182 214.53 55.6676 214.345Z" fill="#FEFFFC"/>
<path d="M149.526 180.62C149.843 179.695 148.591 179.012 148.124 179.934C144.865 186.33 140.785 193.511 133.547 195.892C137.398 185.568 138.757 174.481 137.513 163.533C137.445 162.816 136.272 162.687 136.214 163.465C135.077 178.168 134.893 192.339 125.787 204.589C125.787 192.404 125.576 173.644 124.201 161.891C124.201 161.686 124.12 161.489 123.974 161.344C123.829 161.199 123.632 161.117 123.427 161.117C123.222 161.117 123.025 161.199 122.88 161.344C122.735 161.489 122.653 161.686 122.653 161.891C122.129 182.134 122.903 203.324 122.936 223.681C114.582 213.741 109.84 198.331 110.149 185.304C110.149 184.312 108.669 184.035 108.586 185.076C107.762 194.241 109.215 203.468 112.816 211.936C109.738 210.253 107.025 207.976 104.834 205.237C102.643 202.498 101.017 199.351 100.05 195.979C99.7412 194.896 98.1804 195.41 98.3982 196.48C99.5361 202.19 105.488 213.019 114.354 215.287C115.494 217.19 120.464 226.902 122.845 226.822C122.674 235.861 123.29 244.165 122.97 253.219C122.903 255.226 125.125 255.829 125.73 253.892C126.06 252.821 125.73 212.768 125.73 208.301C127.826 207.548 131.007 201.393 132.02 199.318C133.81 197.658 143.558 198.001 149.526 180.62Z" fill="#FEFFFC"/>
<path d="M110.375 227.717C104.934 233.464 95.1136 233.164 95.765 223.316C95.8433 222.176 96.7781 217.618 98.4426 217.73C100.346 217.881 99.9358 214.996 98.5674 214.981C89.7922 214.856 81.6876 205.383 84.6634 196.881C88.0135 187.329 94.054 189.633 97.1207 187.602C99.2632 186.166 91.1585 183.328 91.4208 174.096C91.7529 162.345 101.816 161.296 108.518 163.701C109.477 164.043 109.965 162.379 109.658 161.776C103.959 149.744 125.415 131.062 138.027 143.272C139.451 144.609 140.559 146.247 141.269 148.068C141.979 149.888 142.273 151.843 142.13 153.792C142.005 155.061 143.27 155.241 144.262 155.023C149.071 153.883 153.38 154.464 155.592 160.598C156.732 163.823 156.265 168.324 152.925 169.612C150.19 170.67 151.284 172.463 152.925 172.484C161.404 172.622 169.156 185.022 161.575 194.778C159.376 197.617 162.715 198.198 164.632 195.155C170.205 186.242 166.579 173.497 156.049 170.708C157.598 168.955 158.519 166.737 158.668 164.403C158.816 162.069 158.184 159.751 156.869 157.817C154.725 154.329 148.799 150.896 144.814 152.504C144.505 135.328 119.055 129.901 108.738 149.312C107.154 152.288 105.526 156.916 106.848 160.369C101.844 159.115 90.8899 159.468 88.61 171.471C87.5525 176.953 90.0905 181.729 93.4745 185.445C90.8985 186.005 88.5117 187.224 86.5471 188.981C84.5825 190.739 83.1071 192.976 82.265 195.474C78.845 205.174 86.1841 216.309 95.3484 216.755C90.1624 222.876 93.2968 236.848 105.077 233.646C106.461 233.275 107.757 232.634 108.892 231.759C110.026 230.885 110.976 229.794 111.687 228.551C112.245 227.717 110.987 227.072 110.375 227.717Z" fill="#FEFFFC"/>
<path d="M342.064 219.359C345.253 211.724 348.24 186.09 352.15 178.1C352.392 177.609 352.514 177.222 353.062 177.588C355.581 179.261 366.444 214.562 369.326 221.343C369.828 222.483 371.949 222.189 371.606 220.808C370.16 214.116 359.422 185.475 356.674 178.796C354.213 172.8 350.816 174.077 348.834 179.341C346.463 185.686 340.981 213.181 340.947 219.236C340.979 219.354 341.045 219.459 341.137 219.538C341.229 219.617 341.343 219.666 341.464 219.68C341.584 219.693 341.706 219.669 341.813 219.612C341.921 219.555 342.008 219.467 342.064 219.359Z" fill="#FEFFFC"/>
<path d="M279.054 199.63C282.078 192.602 284.948 185.656 288.173 178.647C292.675 185.9 296.394 193.61 299.269 201.648C300.089 203.928 303.179 204.234 301.652 200.576C298.38 192.699 295.077 183.89 289.992 176.949C289.115 175.809 287.416 175.257 286.469 176.674C284.777 179.229 278.322 194.673 277.717 199.093C277.552 199.825 278.732 200.381 279.054 199.63Z" fill="#FEFFFC"/>
<path d="M259.028 196.234C260.83 188.324 262.448 180.881 264.83 173.072C267.235 175.627 271.852 186.683 274.075 190.627C274.861 192.017 277.095 191.196 276.433 189.646C273.963 183.731 271.04 178.015 267.692 172.55C264.272 167.99 262.916 170.418 261.822 174.339C259.73 181.426 258.206 188.667 257.262 195.995C257.231 196.229 257.293 196.466 257.437 196.654C257.58 196.842 257.792 196.966 258.026 196.997C258.26 197.029 258.497 196.966 258.685 196.823C258.873 196.68 258.997 196.468 259.028 196.234Z" fill="#FEFFFC"/>
<path d="M383.869 241.121C382.215 240.193 380.373 239.65 378.48 239.535C381.248 234.292 374.546 224.548 365.712 227.522C364.403 227.957 363.207 228.68 362.213 229.637C356.391 218.112 337.629 225.656 342.142 235.493C342.529 236.339 343.976 235.722 343.659 234.833C340.898 227.346 356.103 222.296 359.673 230.481C360.308 231.925 361.221 234.514 362.691 232.065C363.916 230.77 365.521 229.901 367.274 229.583C369.028 229.264 370.836 229.515 372.437 230.297C376.086 232.304 377.647 237.466 375.436 239.004C374.167 239.871 375.299 241.489 376.46 241.468C382.866 241.398 390.138 247.563 387.414 254.061C387.125 254.977 386.569 255.786 385.818 256.385C385.067 256.984 384.154 257.346 383.196 257.424C380.916 257.424 383.3 260.057 383.676 260.514C392.862 271.442 376.439 277.916 372.575 272.73C371.435 271.249 369.007 272.618 370.547 274.441C376.961 282.076 396.772 271.932 385.806 259.424C392.602 256.085 391.826 245.552 383.869 241.121Z" fill="#FEFFFC"/>
<path d="M156.774 311.656V266.545C156.774 266.091 156.863 265.641 157.037 265.221C157.211 264.802 157.466 264.42 157.787 264.099L167.873 254.013C168.195 253.692 168.576 253.437 168.996 253.263C169.416 253.089 169.867 253 170.321 253H179.269C179.728 253 180.168 253.182 180.492 253.506C180.816 253.83 180.999 254.269 181 254.727V315.291H158.505" stroke="#D7E02D" stroke-width="2.10618" stroke-linecap="round" stroke-linejoin="round"/>
<path d="M167.157 294.23C166.002 293.822 165.029 293.019 164.409 291.963C163.789 290.906 163.563 289.665 163.77 288.458C163.977 287.251 164.604 286.155 165.54 285.366C166.477 284.577 167.662 284.144 168.887 284.144C170.112 284.144 171.297 284.577 172.233 285.366C173.17 286.155 173.797 287.251 174.004 288.458C174.211 289.665 173.984 290.906 173.365 291.963C172.745 293.019 171.771 293.822 170.617 294.23" stroke="#D7E02D" stroke-width="2.10618" stroke-linecap="round" stroke-linejoin="round"/>
<path d="M140.227 292.796H140.723C143.144 292.798 145.466 293.761 147.178 295.473C148.89 297.185 149.853 299.507 149.855 301.928V303.173C149.855 305.468 150.767 307.669 152.389 309.291C154.012 310.914 156.213 311.826 158.508 311.826C160.803 311.826 163.003 310.914 164.626 309.291C166.249 307.669 167.16 305.468 167.16 303.173V289.322C167.154 289.091 167.193 288.86 167.277 288.644C167.361 288.429 167.487 288.232 167.648 288.065C167.81 287.899 168.003 287.767 168.216 287.677C168.429 287.587 168.659 287.54 168.89 287.54C169.122 287.54 169.351 287.587 169.564 287.677C169.778 287.767 169.971 287.899 170.132 288.065C170.293 288.232 170.42 288.429 170.503 288.644C170.587 288.86 170.627 289.091 170.62 289.322V303.173C170.62 306.385 169.344 309.466 167.072 311.737C164.801 314.009 161.72 315.285 158.508 315.285C155.295 315.285 152.215 314.009 149.943 311.737C147.672 309.466 146.396 306.385 146.396 303.173V301.928C146.394 300.424 145.796 298.982 144.732 297.919C143.669 296.856 142.227 296.258 140.723 296.257H140.342" stroke="#D7E02D" stroke-width="2.10618" stroke-linecap="round" stroke-linejoin="round"/>
<path d="M167.157 263.378H174.077L170.616 268.57H174.077L168.887 277.222V272.031H165.426L167.157 263.378Z" stroke="white" stroke-width="2.10618" stroke-linecap="round" stroke-linejoin="round"/>
<path d="M42.7803 297.003H45.1411C45.981 297.003 46.7865 297.337 47.3804 297.931C47.9743 298.525 48.308 299.33 48.308 300.17V304.274H42.7803V297.003Z" stroke="#D7E02D" stroke-width="2.10618" stroke-linecap="round" stroke-linejoin="round"/>
<path d="M75.2854 304.274H85.1177C86.5808 304.274 87.9841 303.693 89.0193 302.659C90.0545 301.625 90.6371 300.222 90.6392 298.759V282.277" stroke="#D7E02D" stroke-width="2.10618" stroke-linecap="round" stroke-linejoin="round"/>
<path d="M85.1175 289.548C85.1175 290.036 84.9235 290.504 84.5783 290.849C84.233 291.195 83.7647 291.389 83.2765 291.389H79.5944C79.1062 291.389 78.6379 291.195 78.2926 290.849C77.9474 290.504 77.7534 290.036 77.7534 289.548C77.7534 289.059 77.9474 288.591 78.2926 288.246C78.6379 287.901 79.1062 287.707 79.5944 287.707H83.2765C83.7647 287.707 84.233 287.901 84.5783 288.246C84.9235 288.591 85.1175 289.059 85.1175 289.548Z" stroke="#D7E02D" stroke-width="2.10618" stroke-linecap="round" stroke-linejoin="round"/>
<path d="M111.04 309.796H75.7615" stroke="#D7E02D" stroke-width="2.10618" stroke-linecap="round" stroke-linejoin="round"/>
<path d="M42.7803 304.297V294.945C42.7802 293.885 43.0854 292.847 43.6594 291.955C44.2334 291.064 45.0519 290.356 46.0172 289.917L63.0284 282.186L69.3996 266.893C70.2388 264.88 71.6546 263.161 73.4687 261.952C75.2828 260.743 77.4142 260.097 79.5944 260.097H104.338C107.415 260.097 110.431 260.953 113.048 262.571C115.665 264.189 117.78 266.503 119.155 269.255L125.614 282.186L136.269 287.513C137.492 288.124 138.52 289.065 139.239 290.228C139.958 291.391 140.339 292.731 140.339 294.099V304.297" stroke="#D7E02D" stroke-width="2.10618" stroke-linecap="round" stroke-linejoin="round"/>
<path d="M54.4535 304.275H43.0868C42.5172 304.275 41.971 304.501 41.5682 304.904C41.1655 305.307 40.9392 305.853 40.9392 306.422V309.498C40.9392 310.067 41.1655 310.613 41.5682 311.016C41.971 311.419 42.5172 311.645 43.0868 311.645H54.4473" stroke="#D7E02D" stroke-width="2.10618" stroke-linecap="round" stroke-linejoin="round"/>
<path d="M132.348 311.637H140.032C140.602 311.637 141.148 311.411 141.551 311.008C141.954 310.606 142.18 310.059 142.18 309.49V306.422C142.18 305.853 141.954 305.307 141.551 304.904C141.148 304.501 140.602 304.275 140.032 304.275H132.348" stroke="#D7E02D" stroke-width="2.10618" stroke-linecap="round" stroke-linejoin="round"/>
<path d="M140.339 304.275H134.817V300.775C134.817 299.75 135.224 298.768 135.948 298.043C136.673 297.319 137.655 296.912 138.68 296.912H140.339V304.275Z" stroke="#D7E02D" stroke-width="2.10618" stroke-linecap="round" stroke-linejoin="round"/>
<path d="M90.6391 282.185H71.2127C70.9243 282.185 70.6405 282.113 70.3871 281.976C70.1336 281.838 69.9186 281.639 69.7615 281.397C69.6044 281.156 69.5102 280.878 69.4875 280.591C69.4649 280.303 69.5144 280.015 69.6316 279.751L74.4559 268.898C74.8888 267.921 75.596 267.09 76.4919 266.506C77.3877 265.923 78.4337 265.612 79.5027 265.611H90.6391V282.185Z" stroke="white" stroke-width="2.10618" stroke-linecap="round" stroke-linejoin="round"/>
<path d="M96.1621 282.185H115.589C115.877 282.185 116.161 282.113 116.414 281.976C116.668 281.838 116.883 281.639 117.04 281.397C117.197 281.156 117.291 280.878 117.314 280.591C117.336 280.303 117.287 280.015 117.17 279.751L112.345 268.898C111.912 267.921 111.205 267.09 110.309 266.507C109.413 265.923 108.368 265.612 107.298 265.611H96.1621V282.185Z" stroke="white" stroke-width="2.10618" stroke-linecap="round" stroke-linejoin="round"/>
<path d="M110.887 307.956C110.887 310.885 112.051 313.694 114.122 315.765C116.193 317.837 119.003 319 121.932 319C124.861 319 127.67 317.837 129.741 315.765C131.813 313.694 132.976 310.885 132.976 307.956C132.976 305.026 131.813 302.217 129.741 300.146C127.67 298.075 124.861 296.911 121.932 296.911C119.003 296.911 116.193 298.075 114.122 300.146C112.051 302.217 110.887 305.026 110.887 307.956Z" stroke="white" stroke-width="2.10618" stroke-linecap="round" stroke-linejoin="round"/>
<path d="M118.25 307.955C118.25 308.932 118.637 309.868 119.328 310.559C120.018 311.249 120.955 311.637 121.932 311.637C122.908 311.637 123.845 311.249 124.535 310.559C125.226 309.868 125.614 308.932 125.614 307.955C125.614 306.978 125.226 306.042 124.535 305.351C123.845 304.661 122.908 304.273 121.932 304.273C120.955 304.273 120.018 304.661 119.328 305.351C118.637 306.042 118.25 306.978 118.25 307.955Z" stroke="#D7E02D" stroke-width="2.10618" stroke-linecap="round" stroke-linejoin="round"/>
<path d="M75.2882 304.285C74.372 301.673 72.5082 299.499 70.0658 298.195C67.6234 296.891 64.7804 296.551 62.0995 297.243C59.4186 297.936 57.0953 299.609 55.5894 301.932C54.0835 304.256 53.5048 307.06 53.9679 309.79C54.431 312.52 55.902 314.976 58.0899 316.673C60.2778 318.37 63.023 319.183 65.7821 318.953C68.5413 318.722 71.1133 317.464 72.989 315.427C74.8647 313.39 75.9074 310.724 75.9107 307.955C75.9122 306.705 75.7017 305.465 75.2882 304.285Z" stroke="white" stroke-width="2.10618" stroke-linecap="round" stroke-linejoin="round"/>
<path d="M61.1873 307.955C61.1873 308.932 61.5752 309.868 62.2657 310.559C62.9562 311.249 63.8928 311.637 64.8693 311.637C65.8458 311.637 66.7824 311.249 67.4729 310.559C68.1634 309.868 68.5513 308.932 68.5513 307.955C68.5513 306.978 68.1634 306.042 67.4729 305.351C66.7824 304.661 65.8458 304.273 64.8693 304.273C63.8928 304.273 62.9562 304.661 62.2657 305.351C61.5752 306.042 61.1873 306.978 61.1873 307.955Z" stroke="#D7E02D" stroke-width="2.10618" stroke-linecap="round" stroke-linejoin="round"/>
</svg>
